<?xml version="1.0" encoding="utf-8"?>
<!-- Generator: Adobe Illustrator 25.2.3, SVG Export Plug-In . SVG Version: 6.00 Build 0)  -->
<svg version="1.1" id="Layer_1" xmlns="http://www.w3.org/2000/svg" xmlns:xlink="http://www.w3.org/1999/xlink" x="0px" y="0px"
	 viewBox="0 0 512 512" style="enable-background:new 0 0 512 512;" xml:space="preserve">
<style type="text/css">
	.st0{fill:#E6B447;}
	.st1{fill:#FFFFFF;}
</style>
<g>
	<g>
		<path class="st0" d="M415.5,444.6c-0.8-5.8-2-10.6-3.9-14.7c0-0.1,0-0.1-0.1-0.1c-2.2-4.7-4.8-8-8-10.3c-3.6-2.7-7.7-4-12.2-4
			h-69.9V21.7c0-4.2-1.1-8-3.2-11.2c-2.4-3.6-6.1-6.1-11.5-7.6c-3.7-1.1-8.8-1.9-15.6-2.3c-5.7-0.4-13-0.5-23.9-0.5
			c-8,0-14.3,0-19.3,0.1c-5.3,0.1-9.6,0.4-12.8,0.8c-3.7,0.5-6.8,1.1-9.4,2c-0.1,0-0.1,0-0.2,0.1c-2.8,1-5.1,2.2-7.1,3.7L113.6,74.4
			c-0.1,0.1-0.2,0.1-0.3,0.2c-3.7,2.5-6.4,4.6-8.6,6.9c-2.9,2.9-5,6.5-6.4,10.5c-1.3,3.6-2.2,7.8-2.5,12.6
			c-0.3,4.1-0.4,9.3-0.4,15.6c0,10.2,0.4,17.9,1.3,23.8c1.1,7.3,3.3,12.7,6.9,16.5c0.1,0.1,0.1,0.1,0.2,0.2
			c4.4,4.4,10.2,6.1,17.2,5.2c0.1,0,0.3,0,0.4-0.1c4.4-0.8,9.8-2.7,16.6-6c0.2-0.1,0.4-0.2,0.5-0.3l63.7-35.1l0,97
			c0,5.5,4.5,10,10,10s10-4.5,10-10l0-114c0-3.5-1.9-6.8-4.9-8.6c-3-1.8-6.8-1.9-9.9-0.1l-78.3,43.2c-5.9,2.8-9.3,3.8-11,4.2
			c-0.1,0-0.2,0-0.3,0c-0.3-0.8-0.9-2.3-1.3-5c-0.7-4.8-1.1-11.8-1.1-20.9c0-5.8,0.1-10.7,0.4-14.3c0.2-3.6,0.8-5.8,1.3-7
			c0.1-0.2,0.1-0.3,0.2-0.5c0.4-1.1,0.9-2,1.7-2.8c0.1-0.1,0.2-0.2,0.3-0.3c1-1.1,3.2-2.7,5.3-4.2l104.8-67.9
			c0.3-0.2,0.5-0.4,0.8-0.6c0.2-0.1,0.6-0.4,1.7-0.8c1.3-0.4,3.2-0.8,5.5-1.1c2.6-0.3,6.3-0.6,10.8-0.7c4.8-0.1,11-0.1,18.8-0.1
			c10.4,0,17.3,0.2,22.6,0.5c6.8,0.4,9.9,1.1,11.1,1.5c0,0,0.1,0,0.1,0c0.1,0,0.3,0.1,0.4,0.1v403.2c0,5.5,4.5,10,10,10h79.9
			c0.1,0,0.2,0,0.2,0c0,0,0.1,0,0.2,0.1c0,0,0.7,0.5,1.8,2.7c1,2.2,1.7,5.2,2.2,8.9c0.6,4.3,0.8,9.9,0.8,17c0,6.5-0.4,12-1,16.4
			c-0.8,5.1-1.7,7.6-2.3,8.8c-0.1,0.2-0.2,0.3-0.2,0.5c-0.6,1.4-1.2,2-1.2,2c0,0-0.1,0.1-0.1,0.1c-0.1,0.1-0.1,0.1-0.2,0.1H121.3
			c0,0-0.1,0-0.1-0.1c-0.1-0.1-0.7-0.8-1.4-2.4c0-0.1-0.1-0.1-0.1-0.2c-0.6-1.2-1.5-3.7-2.3-8.8c-0.7-4.4-1-9.9-1-16.4
			c0-7.2,0.3-12.7,0.8-17c0.5-3.7,1.2-6.7,2.2-8.9c0.9-1.9,1.6-2.7,1.8-2.9h91.1c5.5,0,10-4.5,10-10v-114c0-5.5-4.5-10-10-10
			s-10,4.5-10,10v104H121c-4.6,0-8.8,1.5-12.2,4.3c-2.9,2.3-5.4,5.6-7.5,10c0,0,0,0.1-0.1,0.1c-1.9,4.1-3.2,8.9-3.9,14.8
			c-0.7,5.2-1,11.5-1,19.6c0,7.6,0.4,14,1.3,19.5c1,6.3,2.3,10.9,4.1,14.6c2.2,4.5,4.8,7.8,7.9,10c3.5,2.5,7.4,3.8,11.4,3.8h270.4
			c4.3,0,8.3-1.3,11.8-3.8c3.3-2.3,6-5.8,8-10.1c1.8-3.6,3.1-8.2,4-14.4c0.9-5.5,1.3-11.8,1.3-19.5
			C416.5,456.1,416.1,449.9,415.5,444.6z"/>
		<path class="st1" d="M212.3,276.4c5.5,0,10-4.5,10-10s-4.5-10-10-10h0c-5.5,0-10,4.5-10,10S206.8,276.4,212.3,276.4z"/>
	</g>
</g>
</svg>
