<?xml version="1.0" encoding="utf-8"?>
<!-- Generator: Adobe Illustrator 25.2.3, SVG Export Plug-In . SVG Version: 6.00 Build 0)  -->
<svg version="1.1" id="Layer_1" xmlns="http://www.w3.org/2000/svg" xmlns:xlink="http://www.w3.org/1999/xlink" x="0px" y="0px"
	 viewBox="0 0 512 512" style="enable-background:new 0 0 512 512;" xml:space="preserve">
<style type="text/css">
	.st0{fill:#E6B447;}
	.st1{fill:#FFFFFF;}
</style>
<g>
	<g>
		<path class="st0" d="M427,442.4c-1-6.5-2.3-11.3-4.2-15.2c-2.3-4.8-5.2-8.3-8.7-10.7c-3.7-2.7-8-4.1-12.6-4.1H234.6l39.8-40.7
			c28.5-28.3,51.8-53.5,69.2-75c17.5-21.7,31.3-41.8,41.1-59.8c10-18.7,16.5-35.7,19.8-52.1c3.1-15.9,4.6-32.2,4.6-48.2
			c0-19.1-3.3-37.3-9.9-53.9c-6.7-17-16.9-31.8-30.4-44c-13.4-12.1-30.3-21.8-50.5-28.6C298.6,3.4,275.3,0,249.1,0
			c-16.3,0-32.4,1.6-47.9,4.7c-15,3.1-29,7-41.7,11.5c-12.9,4.6-23.5,9.2-32.4,14.2c-9,5-15.2,9.1-19.1,12.7
			c-0.1,0.1-0.2,0.2-0.3,0.3c-3.6,3.6-6.2,6.7-7.9,9.4c0,0.1-0.1,0.2-0.1,0.2c-1.8,3.1-3.2,6.5-4,10.2c-1,3.7-1.6,7.5-2,11.5
			c-0.4,4-0.6,8.8-0.6,15.5c0,9.3,0.3,16.6,0.9,22.5c0.6,5.7,1.5,10.8,2.7,15.5c0,0.1,0.1,0.3,0.1,0.4c1.6,5.5,3.8,9.4,6.9,12
			c3.5,3.1,7.8,4.8,12.5,4.8c5.4,0,11.5-2.4,19-7.6c5.4-3.6,12.1-7.6,20.7-12.2c8.2-4.4,17.7-8.4,28.2-11.8
			c10.4-3.4,22.5-5.1,35.9-5.1c9.2,0,17.1,1.3,23.5,3.8c6.5,2.7,11.7,6.1,15.7,10.4c4.3,4.6,7.5,9.8,9.5,15.7
			c2.2,6.2,3.4,12.9,3.4,19.9c0,8.4-1,17.3-3,26.3c-2,9.4-5.7,19.6-11,30.4c-2.4,5-0.3,11,4.6,13.4c5,2.4,11,0.3,13.4-4.6
			c5.9-12.2,10.1-24,12.5-34.9c2.3-10.4,3.4-20.7,3.4-30.6c0-9.4-1.5-18.4-4.5-26.6c-2.9-8.4-7.6-16-13.7-22.6
			c-6.1-6.5-13.5-11.5-22.9-15.4c-8.8-3.5-19.2-5.3-31-5.3c-15.5,0-29.7,2.1-42.1,6.1c-11.7,3.8-22.3,8.2-31.5,13.2
			c-9.1,5-16.4,9.3-22.3,13.2c0,0-0.1,0.1-0.1,0.1c-3.8,2.6-6,3.6-7.1,3.9c-0.2-0.4-0.5-1.1-0.8-2.1c-0.9-3.8-1.6-7.9-2.1-12.6
			c-0.6-5.2-0.8-11.8-0.8-20.3c0-6,0.1-10.3,0.5-13.5c0.3-3,0.8-5.8,1.5-8.5c0-0.1,0.1-0.2,0.1-0.3c0.4-1.7,1-3.2,1.7-4.5
			c0.5-0.8,1.8-2.6,4.9-5.6c1.6-1.5,5.7-4.6,15.2-9.9c7.9-4.4,17.5-8.6,29.3-12.8c11.9-4.2,25-7.8,39-10.7c14.2-2.8,28.9-4.3,44-4.3
			c24,0,45.1,3,62.8,9c17.5,5.9,32.1,14.2,43.4,24.5c11.3,10.3,19.6,22.3,25.2,36.6c5.6,14.3,8.5,30,8.5,46.6
			c0,14.8-1.4,29.7-4.3,44.3c-2.9,14.3-8.7,29.5-17.7,46.4c-9.2,16.9-22.3,36-39,56.7c-16.9,20.9-39.7,45.6-67.7,73.4
			c0,0-0.1,0.1-0.1,0.1l-56.5,57.8c-2.8,2.9-3.6,7.2-2.1,10.9c1.6,3.7,5.2,6.1,9.2,6.1h190.5c0.4,0,0.6,0.1,0.9,0.3
			c0.2,0.1,0.4,0.3,0.6,0.4c0.1,0.1,0.8,0.6,1.9,2.8c0,0,0,0.1,0.1,0.1c0.9,1.9,1.7,5,2.4,9.3c0.7,4.6,1,10.2,1,16.6
			c0,7.3-0.3,13-0.8,17.4c-0.5,3.8-1.2,7.2-2.2,10.2c-0.6,1.3-1.1,2-1.3,2.3c-0.2,0.1-0.4,0.2-0.9,0.2H124.8
			c-4.6,0-8.5-0.4-11.7-1.2c-2-0.5-3.6-1.4-4.6-2.6c-1.4-1.6-2.5-4.3-3.2-8c-1-4.6-1.4-11.1-1.4-19.2c0-7.8,0.4-14.5,1.1-19.9
			c0.7-5.2,1.8-9.4,3.3-12.9c1.8-4,4-7.9,6.7-11.6c3-4.3,6.7-8.6,11.3-13.2c0,0,0.1-0.1,0.1-0.1l83.8-89.5c4.3-4.5,8.3-8.8,12.1-13
			c3.7-4.1,3.4-10.4-0.7-14.1c-4.1-3.7-10.4-3.4-14.1,0.7c-3.7,4-7.6,8.3-11.8,12.6c0,0,0,0.1-0.1,0.1l-83.7,89.5
			c-5.2,5.4-9.5,10.4-13.2,15.6c-3.4,4.9-6.3,9.9-8.6,15.1c-2.3,5.3-3.9,11.3-4.9,18.5c-0.8,6.4-1.2,13.7-1.2,22.5
			c0,9.7,0.6,17.3,1.9,23.3c1.5,7.2,4,12.8,7.7,17c3.7,4.3,8.8,7.3,14.8,8.9c4.7,1.2,10.4,1.8,16.7,1.8h278.1
			c4.5,0,8.8-1.3,12.4-3.8c0.1-0.1,0.2-0.1,0.2-0.2c3.5-2.6,6.3-6.3,8.2-11.2c0.1-0.1,0.1-0.3,0.2-0.4c1.5-4.4,2.6-9.3,3.3-14.5
			c0.7-5.2,1-11.7,1-19.9C428.2,454.5,427.8,447.9,427,442.4L427,442.4z"/>
		<path class="st1" d="M253.1,259.1c0-5.5-4.5-10-10-10h0c-5.5,0-10,4.5-10,10s4.5,10,10,10S253.1,264.6,253.1,259.1z"/>
	</g>
</g>
</svg>
