<?xml version="1.0" encoding="utf-8"?>
<!-- Generator: Adobe Illustrator 25.2.3, SVG Export Plug-In . SVG Version: 6.00 Build 0)  -->
<svg version="1.1" id="Layer_1" xmlns="http://www.w3.org/2000/svg" xmlns:xlink="http://www.w3.org/1999/xlink" x="0px" y="0px"
	 viewBox="0 0 512 512" style="enable-background:new 0 0 512 512;" xml:space="preserve">
<style type="text/css">
	.st0{fill:#E6B447;}
	.st1{fill:#FFFFFF;}
</style>
<g>
	<g>
		<path class="st0" d="M416.6,311.3c-5.3-13.5-13.1-25.7-23.1-36.4c-10-10.6-22.2-19.5-36.5-26.5c-5.1-2.5-10.5-4.7-16-6.6
			c3.1-1.6,6.1-3.4,9-5.3c11.8-7.7,21.7-17,29.3-27.6c7.8-10.7,13.7-23,17.7-36.5c3.9-13.4,5.9-27.9,5.9-43.2
			c0-19.8-3.4-38.1-10.2-54.1c-6.7-16.1-16.9-30-30.3-41.3c-13.1-11-29.4-19.5-48.3-25.2c-18.8-5.7-40.3-8.6-64-8.6
			c-18.2,0-35.4,1.6-51.1,4.7c-16.2,3.4-29.7,7.2-41.4,11.6c-11.9,4.6-22.1,9.4-30.2,14.4c-8.9,5.5-13.7,8.9-16.7,11.7
			c-0.1,0.1-0.1,0.1-0.2,0.2c-3.5,3.5-5.6,6.1-7,8.7c-1.4,2.5-2.6,5.4-3.6,9.1c0,0,0,0.1,0,0.1c-0.9,3.5-1.5,7.4-1.8,12.2
			c-0.3,4.4-0.4,9.6-0.4,15.9c0,7.8,0.3,14.1,0.8,19.3c0.6,5.1,1.4,9.5,2.6,12.9c0,0.1,0.1,0.3,0.2,0.4c1.8,4.5,4.4,7.8,7.8,9.8
			c2.9,1.8,6.3,2.7,10.2,2.7c5,0,10.7-2.2,19.1-7.4c6.2-3.9,13.6-8,22-12.4c8.5-4.3,18.2-8.3,28.9-11.9c10.2-3.5,20.9-5.2,32.6-5.2
			c10.1,0,18.8,1.3,25.8,4c0,0,0.1,0,0.1,0c3.2,1.2,6.2,2.6,8.9,4.2c4.7,2.8,10.9,1.3,13.7-3.4c2.8-4.7,1.3-10.9-3.4-13.7
			c-3.7-2.2-7.9-4.2-12.2-5.8c-9.4-3.5-20.1-5.3-32.8-5.3c-13.8,0-27,2.1-39,6.3c-11.6,3.9-22.2,8.2-31.6,13c0,0-0.1,0-0.1,0.1
			c-8.8,4.6-16.7,9-23.3,13.2c-4.6,2.8-7,3.8-8.1,4.2c-0.4-1.3-1-3.8-1.4-7.8c-0.5-4.4-0.7-10.2-0.7-17.1c0-5.9,0.1-10.7,0.4-14.7
			c0.2-3.3,0.6-6,1.2-8.1c0.6-2.1,1.2-3.7,1.8-4.8c0-0.1,0.1-0.1,0.1-0.2c0.1-0.3,0.8-1.3,3.4-3.9c1.8-1.7,6.3-4.7,13.3-9
			c7.1-4.3,16.2-8.6,27-12.7c10.7-4.1,23.2-7.6,38.3-10.7c14.3-2.9,30.2-4.3,47.1-4.3c21.7,0,41.2,2.6,58.1,7.7
			c16.3,5,30.2,12.2,41.2,21.4c10.9,9.2,19.2,20.5,24.7,33.7c5.8,13.8,8.6,29,8.6,46.4c0,13.3-1.7,26-5.1,37.6
			c-3.3,11.4-8.2,21.6-14.6,30.4c0,0-0.1,0.1-0.1,0.1c-6.2,8.7-14,16.1-23.9,22.5c-9.7,6.3-21,11-33.8,14.1
			c-4.5,1.1-7.6,5.1-7.6,9.7v1.1c0,5.1,3.8,9.3,8.8,9.9c15.9,1.9,29.5,5.7,41.7,11.7c12.1,5.9,22.4,13.3,30.7,22.2
			c8.4,9,14.6,18.8,19.1,30.1c4.4,11.2,6.7,23.3,6.7,36c0,22.1-4.2,41.8-12.5,58.6c-8.5,17-20.3,31.4-35,42.7
			c-15.2,11.7-33.6,20.7-54.6,26.8c-21.7,6.2-45.7,9.3-71.1,9.3c-15.7,0-30.4-1.1-43.9-3.4c-14.1-2.4-25.9-5.1-36.2-8.4
			c0,0-0.1,0-0.1,0c-9.9-3.1-18.4-6.5-25.3-10.1c-6.6-3.4-10.5-5.9-12-7.1c-1.1-1-1.9-2-2.4-3.1c-0.9-2.1-1.7-4.6-2.4-7
			c-0.7-2.8-1.3-6.4-1.6-10.8c-0.3-4.2-0.5-9.7-0.5-17.3c0-13.6,1.4-18.7,2.1-20.4c0.1-0.2,0.2-0.3,0.2-0.5c1.2,0.4,3.4,1.3,7.4,3.4
			c6.3,3.4,14.4,7.1,23.9,11c9.6,3.9,21.1,7.6,34,10.9c13.3,3.5,28.5,5.2,45.1,5.2c14.2,0,27.2-1.7,38.5-5.2
			c11.2-3.4,21.2-8.5,29.5-15c0.1,0,0.1-0.1,0.1-0.1c8.4-6.8,14.8-15,19-24.5c0,0,0-0.1,0.1-0.1c4-9.4,6.1-19.9,6.1-31.2
			c0-12.4-2.5-23.9-7.4-34c0,0,0-0.1-0.1-0.1c-5.2-10.4-12.7-19.1-22.2-26c-9.3-6.9-21.2-12.3-35.3-16c-13.7-3.6-29.9-5.5-47.9-5.5
			h-41.1c-1.8,0-3.2-0.2-4.2-0.5c-0.1-0.1-0.3-0.4-0.6-0.9c-0.4-0.9-1.4-3.2-2-7.8c-0.5-4.1-0.8-9.7-0.8-17.1c0-7,0.3-12.3,0.8-16.1
			c0.6-4.6,1.5-6.3,1.8-6.8c0.1-0.2,0.2-0.4,0.3-0.5c0.2-0.3,0.3-0.5,0.4-0.6c0.8-0.4,1.9-0.5,3.2-0.5h41.4
			c15.2,0,28.8-1.8,40.5-5.4c12-3.6,22.5-8.9,31.2-16c7.3-6.1,13.2-13.3,17.5-21.5c2.6-4.9,0.7-10.9-4.2-13.5
			c-4.9-2.6-10.9-0.7-13.5,4.2c-3.1,5.9-7.3,11-12.5,15.4c-6.7,5.4-14.6,9.5-24.2,12.3c0,0-0.1,0-0.1,0c-9.8,3-21.4,4.6-34.6,4.6
			h-41.4c-4.3,0-8.2,0.8-11.7,2.4c-4.1,1.8-7.4,5.1-9.7,9.5c-2,3.5-3.3,8-4.1,13.8c-0.7,4.8-1,10.8-1,18.8c0,8.5,0.3,14.7,1,19.7
			c0.8,5.8,2.2,10.6,4.2,14.5c0,0,0.1,0.1,0.1,0.1c2.5,4.7,6.2,8.1,10.5,9.9c0.1,0,0.1,0,0.2,0.1c3.4,1.3,7.1,1.9,11.8,1.9h41.1
			c16.4,0,30.8,1.6,42.9,4.8c11.7,3.1,21.3,7.4,28.5,12.8c0,0,0.1,0.1,0.1,0.1c7,5.1,12.3,11.2,16.1,18.7c3.6,7.5,5.4,15.7,5.4,25.2
			c0,8.6-1.5,16.4-4.4,23.2c-3,6.6-7.3,12.2-13.2,17c-6.4,5-14.2,8.9-23,11.6c-9.4,2.9-20.4,4.3-32.7,4.3c-15,0-28.5-1.5-40.1-4.6
			c-12.1-3.1-22.7-6.5-31.5-10.1c-8.9-3.6-16.3-7-21.9-10.1c-7.8-4.2-13.2-6.1-17.4-6.1c-7.9,0-14.4,4.6-18,12.7
			c0,0.1-0.1,0.1-0.1,0.2c-2.5,5.9-3.7,15.1-3.7,28.2c0,8.1,0.2,14.1,0.5,18.8c0.4,5.6,1.1,10.3,2.2,14.4c0.9,3.5,2.1,6.8,3.3,9.8
			c0,0.1,0.1,0.1,0.1,0.2c1.7,3.8,4.1,7,7.5,10c0.1,0.1,0.2,0.1,0.2,0.2c3.1,2.6,8.4,5.8,15.7,9.6c8,4.2,17.6,8,28.6,11.5
			c11.2,3.6,23.9,6.6,39,9.1c14.5,2.4,30.4,3.6,47.2,3.6c27.3,0,53.1-3.4,76.6-10.1c23.4-6.8,44-16.9,61.2-30.1
			c17.1-13.2,30.8-29.8,40.7-49.7c9.7-19.6,14.6-42.3,14.6-67.5C424.7,339.4,422,324.7,416.6,311.3L416.6,311.3z"/>
		<path class="st1" d="M296.6,134c0-5.5-4.5-10-10-10h0c-5.5,0-10,4.5-10,10s4.5,10,10,10S296.6,139.5,296.6,134z"/>
	</g>
</g>
</svg>
