<?xml version="1.0" encoding="utf-8"?>
<!-- Generator: Adobe Illustrator 25.2.3, SVG Export Plug-In . SVG Version: 6.00 Build 0)  -->
<svg version="1.1" id="Layer_1" xmlns="http://www.w3.org/2000/svg" xmlns:xlink="http://www.w3.org/1999/xlink" x="0px" y="0px"
	 viewBox="0 0 512 512" style="enable-background:new 0 0 512 512;" xml:space="preserve">
<style type="text/css">
	.st0{fill:#E6B447;}
	.st1{fill:#FFFFFF;}
</style>
<g>
	<g>
		<path class="st0" d="M283.4,85.6h-0.8c-3.6,0-6.9,1.9-8.7,5l-41.6,72.8c-2.7,4.8-1.1,10.9,3.7,13.6c4.8,2.7,10.9,1.1,13.6-3.7
			l23.7-41.5v177.4H171.8l33.1-57.8c2.7-4.8,1.1-10.9-3.7-13.6c-4.8-2.7-10.9-1.1-13.6,3.7l-41.6,72.8c-1.8,3.1-1.8,6.9,0,10
			s5.1,5,8.7,5h128.8c5.5,0,10-4.5,10-10V95.6C293.4,90.1,288.9,85.6,283.4,85.6L283.4,85.6z"/>
		<path class="st0" d="M441.5,324.2c-5.7-12.4-13.7-15-19.3-15H389v-283c0-4-1.3-9.8-7.3-14.8c-0.1-0.1-0.3-0.2-0.4-0.4
			c-3.9-2.9-9.1-5.2-15.5-6.7c-6-1.6-13.7-2.7-23.6-3.4C333.5,0.3,322.5,0,308.6,0c-12,0-22.3,0.3-30.7,0.8
			c-9.2,0.6-16.4,1.4-22,2.6c-6.7,1.4-11.4,3-15.3,5.1c-0.1,0-0.1,0.1-0.2,0.1c-4.6,2.6-8,5.7-10.1,9.4c0,0-0.1,0.1-0.1,0.1
			L78.9,285c0,0.1-0.1,0.1-0.1,0.2c-2.6,4.8-4.9,9.7-6.8,14.6c0,0.1-0.1,0.2-0.1,0.3c-1.8,5.2-3.2,10.1-4.1,15.1
			c-1,5.1-1.7,10.9-2.1,17.3c-0.4,5.7-0.5,12.3-0.5,21.6c0,10.9,0.4,18.9,1.4,25.2c1.1,7,2.8,12.6,5.3,17c0.1,0.1,0.2,0.3,0.2,0.4
			c3.2,5.2,7.4,8.6,12.4,10.2c3.6,1.2,7.8,1.8,12.5,1.8h176.4V487c0,4.7,1.3,8.9,4,12.5c2.6,3.5,6.6,6.2,12.3,8.3
			c0.1,0,0.2,0.1,0.3,0.1c4.5,1.5,10.3,2.6,16.8,3.3c6.2,0.6,13.8,1,23.9,1c10.6,0,18.3-0.3,24.5-1c6.1-0.7,11.7-1.7,16.6-3.2
			c0.1,0,0.3-0.1,0.4-0.1c5.8-2,9.9-4.7,12.5-8.1c2.9-3.7,4.4-8,4.4-12.6v-78.3h33.2c5.1,0,14.5-2.1,20-16.4
			c3.1-7.8,4.7-18.6,4.7-33C446.8,343,445.1,331.9,441.5,324.2L441.5,324.2z M423.6,384.9c0,0.1,0,0.1-0.1,0.2
			c-0.8,2.2-1.6,3.2-1.9,3.6H379c-5.5,0-10,4.5-10,10V487c0,0.1,0,0.1,0,0.1c0,0,0,0.1-0.1,0.2c0,0,0,0.1-0.1,0.1
			c-0.2,0.2-1.1,0.7-3,1.4c-3.7,1.1-8,1.9-12.8,2.4c-5.3,0.6-12.6,0.8-22.3,0.8c-9.2,0-16.4-0.3-21.8-0.8c-5-0.5-9.4-1.4-12.6-2.4
			c-1.7-0.6-2.5-1.1-2.8-1.3c0-0.1-0.1-0.2-0.1-0.5v-88.3c0-5.5-4.5-10-10-10H97c-3.2,0-5.2-0.4-6.2-0.8c0,0-0.1,0-0.1,0
			c-0.2-0.1-0.8-0.5-1.5-1.6c-0.9-1.6-2-4.6-2.8-10c-0.8-5.2-1.2-12.4-1.2-22.1c0-8.7,0.2-15.1,0.5-20.3c0.4-5.5,1-10.5,1.8-14.9
			c0.7-3.9,1.8-7.8,3.3-12c1.6-4.1,3.5-8.1,5.7-12.2L247.5,28.2c0.1-0.2,0.7-1,2.6-2.1c2.1-1.1,5.3-2.1,9.9-3.1
			c4.6-1,10.9-1.7,19.1-2.2c8-0.5,17.9-0.8,29.5-0.8c13.4,0,23.9,0.3,32.2,0.9c8.5,0.6,15.3,1.5,20,2.8c0.1,0,0.1,0,0.2,0.1
			c4.6,1.1,7,2.4,8,3.1v292.4c0,5.5,4.5,10,10,10h42.3c0.4,0.4,1.1,1.4,2.1,3.4c0,0.1,0,0.1,0.1,0.2c1.5,3.2,3.4,10.4,3.4,26.5
			C426.8,370.9,425.7,379.5,423.6,384.9z"/>
		<path class="st1" d="M218.6,217.4c5.5,0,10-4.5,10-10s-4.5-10-10-10h0c-5.5,0-10,4.5-10,10S213.1,217.4,218.6,217.4z"/>
	</g>
</g>
</svg>
