<?xml version="1.0" encoding="UTF-8"?> <svg xmlns="http://www.w3.org/2000/svg" width="118" height="118" viewBox="0 0 118 118" fill="none"> <g opacity="0.6" filter="url(#filter0_f)"> <circle cx="59" cy="59" r="29" fill="#F7BD4C"></circle> </g> <path d="M82.8174 58.8658C82.8159 58.8372 82.8131 58.8085 82.809 58.7799L80.4031 42.0773C80.3621 41.793 80.1926 41.5433 79.9434 41.3999C79.6942 41.2565 79.3926 41.2352 79.1253 41.3423L68.0532 45.7836C67.5727 45.9763 67.3399 46.5212 67.5329 47.0005C67.7262 47.4799 68.2723 47.7122 68.7526 47.5195L78.7167 43.5226L80.9368 58.9351C80.938 58.9785 80.9424 59.0221 80.9498 59.0657C81.4352 61.9169 80.9037 64.8673 79.4535 67.3735C77.7834 70.2597 75.0835 72.3224 71.8511 73.1818C68.6179 74.0414 65.2391 73.5942 62.3368 71.9225C62.3167 71.9109 62.2961 71.9011 62.2755 71.8912C62.8977 71.4194 63.483 70.9086 64.0289 70.3622L75.005 67.4279C75.5052 67.2942 75.802 66.7812 75.668 66.2821C75.534 65.7831 75.0195 65.4869 74.5197 65.6206L66.0742 67.8784C67.0022 66.501 67.7282 64.982 68.2243 63.3568L75.7592 61.3425C76.2595 61.2088 76.5563 60.6958 76.4222 60.1968C76.2882 59.6977 75.7737 59.4015 75.274 59.5353L69.7298 61.0174L71.8146 57.4145L76.2204 56.2367C76.7206 56.103 77.0174 55.59 76.8834 55.091C76.7493 54.592 76.2349 54.2957 75.7351 54.4295L73.1406 55.1232L75.1356 51.6755C75.3945 51.228 75.2409 50.656 74.7925 50.3977C74.344 50.1393 73.7706 50.2927 73.5117 50.74L71.5167 54.1876L70.8215 51.599C70.6874 51.1 70.1732 50.8037 69.6732 50.9375C69.173 51.0712 68.8762 51.5842 69.0102 52.0832L70.1907 56.479L68.9709 58.5871C69.0069 55.5927 68.239 52.6336 66.6999 49.974C64.7618 46.6248 61.7032 44.0238 58.0837 42.6458C58.0778 42.6433 58.0717 42.6407 58.0657 42.6382L53.8233 40.9203C53.3431 40.726 52.7968 40.9567 52.602 41.4353C52.4073 41.9141 52.6384 42.4596 53.1182 42.6539L57.322 44.3561C57.341 44.3648 57.3604 44.3728 57.3801 44.3803C60.6134 45.602 63.3466 47.9207 65.0759 50.9092C67.0889 54.3881 67.6199 58.4429 66.5711 62.3273C65.6035 65.9103 63.3979 68.9516 60.3173 70.9836L58.7438 68.2645L62.1551 55.5626C62.2891 55.0635 61.9923 54.5506 61.4921 54.4169C60.9915 54.2832 60.4779 54.5793 60.3438 55.0784L57.418 65.9733L53.9468 59.9747L56.3134 51.1628C56.4475 50.6637 56.1507 50.1509 55.6504 50.0171C55.1501 49.8833 54.6362 50.1796 54.5022 50.6786L52.621 57.6833L49.8847 52.9548L51.31 47.648C51.444 47.1489 51.1472 46.636 50.647 46.5023C50.1465 46.3686 49.6328 46.6648 49.4987 47.1638L48.5587 50.6634L45.9665 46.1838C45.7077 45.7364 45.1342 45.583 44.6858 45.8414C44.2373 46.0997 44.0836 46.6719 44.3427 47.1192L46.9349 51.5988L43.4273 50.6611C42.927 50.5273 42.4131 50.8236 42.2791 51.3226C42.145 51.8217 42.4418 52.3346 42.9421 52.4683L48.2609 53.8903L50.9971 58.6189L43.9766 56.7421C43.4762 56.6083 42.9624 56.9046 42.8283 57.4036C42.6943 57.9027 42.9911 58.4155 43.4913 58.5493L52.3231 60.9104L55.7943 66.909L44.8748 63.9898C44.3744 63.8561 43.8606 64.1523 43.7266 64.6513C43.5925 65.1504 43.8893 65.6633 44.3896 65.7971L57.1203 69.2005L58.6936 71.9193C51.6086 75.4424 42.8892 72.905 38.8901 65.9942C37.142 62.9734 36.5015 59.4171 37.0866 55.9805C37.0946 55.9341 37.0988 55.8878 37.0996 55.8417L39.7768 37.2518L45.9878 39.7669C46.4681 39.9613 47.0144 39.7306 47.2091 39.2519C47.4038 38.7731 47.1727 38.2276 46.6929 38.0333L39.3718 35.0686C39.1047 34.9605 38.8022 34.9809 38.5523 35.1241C38.3023 35.2673 38.1322 35.5175 38.0912 35.8024L35.2258 55.6951C35.2212 55.7267 35.2184 55.7583 35.2171 55.7896C34.5947 59.6168 35.3206 63.5678 37.2658 66.9293C40.3982 72.3427 46.1058 75.3706 51.9731 75.3705C54.5644 75.3705 57.1864 74.7776 59.6318 73.5409L60.7841 75.5321C60.9578 75.8322 61.2729 76 61.597 76C61.756 76 61.9172 75.9596 62.0649 75.8746C62.5134 75.6163 62.667 75.0442 62.408 74.5968L61.9808 73.8584C64.0525 74.9314 66.3121 75.4804 68.5988 75.4804C69.8447 75.4804 71.0987 75.3179 72.3341 74.9895C76.0512 74.0012 79.1565 71.6286 81.0775 68.3089C82.7265 65.4594 83.3426 62.1104 82.8174 58.8658Z" fill="#C8C5C8"></path> <path d="M62.2755 71.8911C62.296 71.9011 62.3167 71.9108 62.3367 71.9224L59.6318 73.5408L58.6936 71.9192L57.1203 69.2004L44.3895 65.797C43.8893 65.6632 43.5925 65.1504 43.7265 64.6512C43.8606 64.1522 44.3743 63.856 44.8748 63.9898L55.7943 66.9089L52.3231 60.9104L43.4913 58.5492C42.9911 58.4155 42.6942 57.9026 42.8283 57.4035C42.9624 56.9045 43.4762 56.6082 43.9766 56.742L50.9971 58.6188L48.2608 53.8903L42.942 52.4682C42.4418 52.3345 42.145 51.8216 42.279 51.3225C42.4131 50.8235 42.9269 50.5273 43.4273 50.661L46.9348 51.5987L44.3426 47.1192C44.0836 46.6718 44.2373 46.0996 44.6858 45.8414C45.1342 45.5829 45.7076 45.7363 45.9665 46.1837L48.5587 50.6634L49.4987 47.1637C49.6328 46.6647 50.1465 46.3685 50.647 46.5022C51.1472 46.636 51.444 47.1488 51.31 47.6479L49.8847 52.9547L52.621 57.6833L54.5021 50.6785C54.6362 50.1795 55.15 49.8833 55.6504 50.017C56.1506 50.1508 56.4474 50.6636 56.3134 51.1627L53.9468 59.9746L57.4179 65.9732L60.3438 55.0783C60.4778 54.5792 60.9915 54.2831 61.492 54.4168C61.9923 54.5505 62.2891 55.0634 62.155 55.5625L58.7438 68.2644L60.3173 70.9835C63.3979 68.9515 65.6034 65.9102 66.571 62.3272L68.9708 58.587L70.1907 56.4789L69.0102 52.0831C68.8762 51.5841 69.173 51.0711 69.6732 50.9374C70.1732 50.8037 70.6874 51.0999 70.8215 51.5989L71.5167 54.1875L73.5117 50.74C73.7706 50.2926 74.3439 50.1393 74.7924 50.3976C75.2408 50.6559 75.3945 51.2279 75.1356 51.6754L73.1406 55.1231L75.7351 54.4294C76.2349 54.2956 76.7493 54.5919 76.8833 55.0909C77.0174 55.5899 76.7206 56.103 76.2203 56.2366L71.8146 57.4144L69.7297 61.0174L75.2739 59.5352C75.7737 59.4014 76.2882 59.6977 76.4222 60.1967C76.5562 60.6957 76.2594 61.2087 75.7592 61.3424L68.2243 63.3567C67.7282 64.9819 67.0022 66.5009 66.0742 67.8783L74.5197 65.6206C75.0195 65.4868 75.534 65.783 75.668 66.2821C75.802 66.7811 75.5052 67.2941 75.005 67.4278L64.0289 70.3621C63.483 70.9085 62.8977 71.4194 62.2755 71.8911Z" fill="#F7BD4C"></path> <path d="M50.493 39.6513C50.3187 39.4773 50.0768 39.3772 49.8302 39.3772C49.5835 39.3772 49.3416 39.4773 49.1673 39.6513C48.9929 39.8262 48.8926 40.0666 48.8926 40.3127C48.8926 40.5596 48.9928 40.8001 49.1673 40.975C49.3416 41.1491 49.5835 41.249 49.8302 41.249C50.0767 41.249 50.3187 41.149 50.493 40.975C50.6683 40.8001 50.7678 40.5587 50.7678 40.3127C50.7678 40.0667 50.6683 39.8262 50.493 39.6513Z" fill="#F7BD4C"></path> <path d="M76.6141 47.8644L76.6085 47.8568C76.3041 47.4387 75.7177 47.346 75.2989 47.6496C74.8799 47.9531 74.7868 48.5382 75.0911 48.9561L75.0967 48.9637C75.2802 49.2157 75.5662 49.3495 75.8562 49.3495C76.0472 49.3495 76.24 49.2914 76.4064 49.1709C76.8253 48.8674 76.9183 48.2824 76.6141 47.8644Z" fill="#F7BD4C"></path> <defs> <filter id="filter0_f" x="0" y="0" width="118" height="118" filterUnits="userSpaceOnUse" color-interpolation-filters="sRGB"> <feFlood flood-opacity="0" result="BackgroundImageFix"></feFlood> <feBlend mode="normal" in="SourceGraphic" in2="BackgroundImageFix" result="shape"></feBlend> <feGaussianBlur stdDeviation="15" result="effect1_foregroundBlur"></feGaussianBlur> </filter> </defs> </svg> 