<?xml version="1.0" encoding="UTF-8"?> <svg xmlns="http://www.w3.org/2000/svg" width="118" height="118" viewBox="0 0 118 118" fill="none"> <g opacity="0.6" filter="url(#filter0_f)"> <circle cx="59" cy="59" r="29" fill="#F7BD4C"></circle> </g> <path d="M44.7098 63.5897C44.2831 62.7431 43.8428 62.456 43.6733 62.3718C43.4777 62.2748 43.2474 62.2748 43.0518 62.3719C42.8823 62.4561 42.4422 62.7432 42.0155 63.5898C41.5584 64.4965 41.3066 65.6774 41.3066 66.9148C41.3066 68.1524 41.5585 69.3332 42.0155 70.2399C42.4422 71.0867 42.8826 71.3737 43.052 71.4578C43.1497 71.5063 43.2562 71.5306 43.3626 71.5306C43.4691 71.5306 43.5757 71.5063 43.6732 71.4578C43.8428 71.3737 44.283 71.0867 44.7097 70.2402C45.1669 69.3335 45.4187 68.1526 45.4187 66.915C45.4188 65.6774 45.1671 64.4965 44.7098 63.5897ZM43.4711 69.631C43.4337 69.7051 43.3974 69.771 43.3625 69.8296C43.3278 69.771 43.2914 69.7051 43.254 69.6309C42.8904 68.9097 42.6902 67.9451 42.6902 66.915C42.6902 65.8848 42.8905 64.9203 43.254 64.1991C43.2914 64.125 43.3277 64.059 43.3625 64.0004C43.3973 64.059 43.4337 64.1249 43.4711 64.199C43.8347 64.9202 44.0349 65.8847 44.0349 66.915C44.0349 67.9452 43.8347 68.9098 43.4711 69.631Z" fill="#D1D1D1"></path> <path d="M73.2611 36.6202C72.1762 36.0724 70.2947 35.4192 67.4927 35.4192C64.6906 35.4192 62.8091 36.0723 61.7243 36.6202C60.3343 37.3223 59.5044 38.214 59.5044 39.0058C59.5043 39.87 60.4948 40.8507 62.0895 41.5653C62.4377 41.7213 62.8475 41.5691 63.0056 41.2254C63.1634 40.8818 63.0094 40.4768 62.6614 40.3208C61.4003 39.7556 60.9672 39.1755 60.8955 39.0059C60.9635 38.8465 61.3611 38.3068 62.5077 37.7617C63.4442 37.3164 65.0694 36.7857 67.4926 36.7857C69.9157 36.7857 71.541 37.3164 72.4776 37.7617C73.6237 38.3065 74.0214 38.8462 74.0897 39.0058C74.0215 39.1653 73.6237 39.7049 72.4776 40.2498C71.541 40.6951 69.9157 41.2258 67.4926 41.2258C66.508 41.2258 65.5701 41.1365 64.7046 40.9604C64.3306 40.8842 63.9644 41.1221 63.8873 41.4917C63.8101 41.8613 64.051 42.2227 64.4253 42.2989C65.3824 42.4937 66.4145 42.5924 67.4926 42.5924C70.2946 42.5924 72.1762 41.9393 73.261 41.3914C74.651 40.6894 75.4809 39.7975 75.4809 39.0058C75.481 38.214 74.6512 37.3222 73.2611 36.6202Z" fill="#F7BD4C"></path> <path d="M67.4926 38.3384C68.8049 38.3384 69.9742 38.5076 70.9728 38.8322L64.0125 38.8323C65.011 38.5077 66.1803 38.3384 67.4926 38.3384ZM70.9729 38.8323C71.0541 38.8588 71.103 38.9309 71.103 39.0058C71.103 39.0809 71.0539 39.153 70.9729 39.1793L70.9729 38.8323ZM63.8823 39.0058C63.8823 38.9307 63.9314 38.8586 64.0124 38.8323L70.9729 39.1793C69.9745 39.504 68.8052 39.6732 67.4926 39.6732C66.1802 39.6732 65.011 39.504 64.0125 39.1793L64.0124 39.1793C63.9314 39.153 63.8823 39.081 63.8823 39.0058Z" stroke="#F7BD4C"></path> <path d="M67.4927 33C61.6396 33 57.0547 35.6381 57.0547 39.0059C57.0547 39.0102 57.055 39.0143 57.055 39.0186V46.803C57.055 47.1803 57.3646 47.4863 57.7469 47.4863C58.1291 47.4863 58.4388 47.1804 58.4388 46.803V42.0378C60.2255 43.8294 63.5748 45.0116 67.4927 45.0116C71.4106 45.0116 74.7598 43.8294 76.5465 42.0377V48.44C76.5465 48.8174 76.8562 49.1234 77.2384 49.1234C77.6206 49.1234 77.9304 48.8174 77.9304 48.44V39.0143C77.9304 39.0115 77.9306 39.0087 77.9306 39.0059C77.9306 35.6381 73.3456 33 67.4927 33ZM76.5465 39.0056V39.0129C76.5388 41.5246 72.3958 43.645 67.4927 43.645C62.5917 43.645 58.4505 41.5264 58.4388 39.0165V39.0057C58.4388 39.0045 58.4386 39.0034 58.4386 39.0022C58.4427 36.489 62.5873 34.3666 67.4927 34.3666C72.3987 34.3666 76.5439 36.4897 76.5466 39.0033C76.5466 39.004 76.5465 39.0048 76.5465 39.0056Z" fill="#D1D1D1"></path> <path d="M77.2384 67.9315C76.8562 67.9315 76.5465 68.2374 76.5465 68.6148V72.9945C76.5465 75.509 72.4001 77.6333 67.4922 77.6333C62.5848 77.6333 58.4388 75.509 58.4388 72.9945V49.0808C58.4388 48.7035 58.1291 48.3975 57.7469 48.3975C57.3647 48.3975 57.0549 48.7034 57.0549 49.0808V72.9944C57.0549 76.362 61.6395 79 67.4922 79C73.3453 79 77.9303 76.362 77.9303 72.9944V68.6147C77.9303 68.2374 77.6205 67.9315 77.2384 67.9315Z" fill="#F7BD4C"></path> <path d="M84.5041 50.1104C84.1481 49.3602 83.6433 48.7215 83.0834 48.3124C82.4122 47.8221 81.6917 47.6955 81.1052 47.9641C81.1008 47.966 75.0746 51.5405 75.0746 51.5405C74.7471 51.735 74.6414 52.1548 74.8381 52.4782C74.968 52.6914 75.197 52.8094 75.4318 52.8094C75.5533 52.8094 75.6761 52.7779 75.7877 52.7116L80.1046 50.1476C80.144 50.7176 80.3096 51.3324 80.5896 51.9225C80.9456 52.6728 81.4504 53.3114 82.0103 53.7205C82.2329 53.8832 82.4609 54.0054 82.6876 54.0869L74.4274 68.2035C74.2363 68.5303 74.3494 68.9482 74.6803 69.1371C74.7895 69.1994 74.9085 69.2289 75.0259 69.2289C75.265 69.2289 75.4974 69.1065 75.6257 68.8873C75.6257 68.8873 84.5573 53.6205 84.5633 53.6085C84.8134 53.286 84.9646 52.8503 84.9943 52.3391C85.0345 51.6522 84.8603 50.8608 84.5041 50.1104ZM83.613 52.261C83.5937 52.5948 83.4927 52.7895 83.4072 52.8291C83.3214 52.8687 83.1055 52.8208 82.8334 52.622C82.4603 52.3494 82.0993 51.8831 81.8426 51.3426C81.5861 50.802 81.4542 50.2297 81.4807 49.7721C81.4974 49.4838 81.575 49.2999 81.651 49.2293L81.7013 49.1995C81.717 49.1946 81.7351 49.1912 81.7572 49.1912C81.8656 49.1912 82.0455 49.2541 82.2604 49.4112C82.6335 49.6837 82.9945 50.1501 83.2512 50.6906C83.5076 51.231 83.6396 51.8035 83.613 52.261Z" fill="#D1D1D1"></path> <path d="M55.5203 72.4497H45.999C47.0538 71.2013 47.7251 69.2052 47.7251 66.915C47.7251 64.6248 47.0538 62.6287 45.999 61.3803H55.5203V61.3802C55.9025 61.3802 56.2122 61.0742 56.2122 60.6968C56.2122 60.3195 55.9026 60.0135 55.5203 60.0135H51.3322L51.0739 58.7859C52.0579 57.3012 52.2541 55.4589 51.5907 53.796C50.8881 52.0356 49.342 50.7771 47.4551 50.4296C47.1946 50.3816 46.929 50.4849 46.7714 50.6957C45.632 52.2213 45.3712 54.1831 46.0737 55.9435C46.7181 57.5584 48.0727 58.7503 49.7486 59.2048L49.9189 60.0136H43.3626C40.9162 60.0136 39 63.045 39 66.9149C39 70.7848 40.9162 73.8163 43.3626 73.8163H55.5203C55.9025 73.8163 56.2122 73.5103 56.2122 73.1329C56.2122 72.7555 55.9025 72.4497 55.5203 72.4497ZM47.3611 55.4425C46.8896 54.261 46.9969 52.9584 47.6377 51.8774C48.8529 52.236 49.8314 53.116 50.3031 54.2973C50.7745 55.4788 50.6671 56.7815 50.0265 57.8624C48.8111 57.5038 47.8325 56.6238 47.3611 55.4425ZM43.3626 72.4496C41.7479 72.4496 40.3839 69.9151 40.3839 66.9149C40.3839 63.9148 41.748 61.3802 43.3626 61.3802C44.9772 61.3802 46.3412 63.9147 46.3412 66.9149C46.3412 69.9151 44.9772 72.4496 43.3626 72.4496Z" fill="#F7BD4C"></path> <path d="M63.6382 53.5454C63.256 53.5454 62.9463 53.8513 62.9463 54.2288V66.3001C62.9463 66.6774 63.256 66.9834 63.6382 66.9834C64.0204 66.9834 64.3302 66.6775 64.3302 66.3001V54.2287C64.3301 53.8513 64.0203 53.5454 63.6382 53.5454Z" fill="#D1D1D1"></path> <path d="M63.6382 46.7576C63.256 46.7576 62.9463 47.0635 62.9463 47.4409V51.9507C62.9463 52.3281 63.256 52.6341 63.6382 52.6341C64.0204 52.6341 64.3302 52.3282 64.3302 51.9507V47.4409C64.3301 47.0635 64.0204 46.7576 63.6382 46.7576Z" fill="#D1D1D1"></path> <path d="M60.5017 69.1245C60.1196 69.1245 59.8098 69.4304 59.8098 69.8079V71.3564C59.8098 71.7338 60.1195 72.0398 60.5017 72.0398C60.8839 72.0398 61.1937 71.7338 61.1937 71.3564V69.8079C61.1937 69.4305 60.884 69.1245 60.5017 69.1245Z" fill="#D1D1D1"></path> <path d="M60.5017 45.801C60.1196 45.801 59.8098 46.1069 59.8098 46.4844V67.5299C59.8098 67.9073 60.1195 68.2133 60.5017 68.2133C60.8839 68.2133 61.1937 67.9074 61.1937 67.5299V46.4843C61.1937 46.1069 60.884 45.801 60.5017 45.801Z" fill="#D1D1D1"></path> <defs> <filter id="filter0_f" x="0" y="0" width="118" height="118" filterUnits="userSpaceOnUse" color-interpolation-filters="sRGB"> <feFlood flood-opacity="0" result="BackgroundImageFix"></feFlood> <feBlend mode="normal" in="SourceGraphic" in2="BackgroundImageFix" result="shape"></feBlend> <feGaussianBlur stdDeviation="15" result="effect1_foregroundBlur"></feGaussianBlur> </filter> </defs> </svg> 