<?xml version="1.0" encoding="UTF-8"?> <svg xmlns="http://www.w3.org/2000/svg" width="118" height="118" viewBox="0 0 118 118" fill="none"> <g opacity="0.6" filter="url(#filter0_f)"> <circle cx="59" cy="59" r="29" fill="#F7BD4C"></circle> </g> <path d="M66.2277 43.3667H51.7724C49.4774 43.3667 47.6102 45.2799 47.6102 47.6314V54.5109C47.6102 54.9163 47.9309 55.2448 48.3264 55.2448C48.722 55.2448 49.0427 54.9163 49.0427 54.5109V47.6314C49.0427 46.0892 50.2673 44.8344 51.7725 44.8344H66.2278C67.7329 44.8344 68.9575 46.0891 68.9575 47.6314V75.7354C68.9575 77.2776 67.7329 78.5324 66.2278 78.5324H65.6862V77.2113C65.6862 76.806 65.3656 76.4774 64.97 76.4774C64.5745 76.4774 64.2537 76.806 64.2537 77.2113V78.5324H53.7464V73.0468C53.7464 71.84 54.7045 70.8582 55.8823 70.8582H62.1178C63.2162 70.8582 64.1296 71.7008 64.2422 72.8181C64.2829 73.2211 64.6352 73.5147 65.0282 73.4725C65.4217 73.4308 65.7077 73.0702 65.667 72.6671C65.4785 70.7991 63.9526 69.3904 62.1177 69.3904H55.8822C53.9146 69.3904 52.3139 71.0306 52.3139 73.0467V78.5323H51.7724C50.2672 78.5323 49.0426 77.2776 49.0426 75.7353V59.0771C49.0426 58.6717 48.7219 58.3432 48.3263 58.3432C47.9308 58.3432 47.6101 58.6717 47.6101 59.0771V75.7354C47.6101 78.0869 49.4773 80.0001 51.7723 80.0001H53.0301H64.9698H66.2276C68.5226 80.0001 70.3897 78.0869 70.3897 75.7354V47.6314C70.3898 45.2799 68.5227 43.3667 66.2277 43.3667Z" fill="#C8C5C8"></path> <path d="M59.0001 47.458C54.7704 47.458 51.3293 50.9838 51.3293 55.3178C51.3293 59.6517 54.7704 63.1774 59.0001 63.1774C63.2297 63.1774 66.6708 59.6517 66.6708 55.3178C66.6708 50.9839 63.2297 47.458 59.0001 47.458ZM59.0001 61.7098C55.5602 61.7098 52.7617 58.8423 52.7617 55.3179C52.7617 51.7933 55.5602 48.9258 59.0001 48.9258C62.4399 48.9258 65.2383 51.7933 65.2383 55.3179C65.2383 58.8424 62.4398 61.7098 59.0001 61.7098Z" fill="#F7BD4C"></path> <path d="M59.0001 51.021C56.6878 51.021 54.8066 52.9486 54.8066 55.3179C54.8066 57.6871 56.6878 59.6146 59.0001 59.6146C61.3123 59.6146 63.1935 57.6871 63.1935 55.3179C63.1935 52.9486 61.3123 51.021 59.0001 51.021ZM59.0001 58.1469C57.4776 58.1469 56.239 56.8777 56.239 55.3179C56.239 53.7579 57.4776 52.4888 59.0001 52.4888C60.5225 52.4888 61.7611 53.7579 61.7611 55.3179C61.7611 56.8777 60.5225 58.1469 59.0001 58.1469Z" fill="#F7BD4C"></path> <path d="M60.9445 73.2437H57.0556C56.6601 73.2437 56.3394 73.5722 56.3394 73.9775C56.3394 74.3829 56.66 74.7114 57.0556 74.7114H60.9445C61.34 74.7114 61.6608 74.3829 61.6608 73.9775C61.6608 73.5722 61.34 73.2437 60.9445 73.2437Z" fill="#C8C5C8"></path> <path d="M60.9445 75.6365H57.0556C56.6601 75.6365 56.3394 75.965 56.3394 76.3704C56.3394 76.7757 56.66 77.1042 57.0556 77.1042H60.9445C61.34 77.1042 61.6608 76.7757 61.6608 76.3704C61.6608 75.965 61.34 75.6365 60.9445 75.6365Z" fill="#C8C5C8"></path> <path d="M67.1664 38.5532C65.3888 35.6623 62.3387 33.9363 59.0078 33.9363C55.6638 33.9363 52.6074 35.6727 50.832 38.5811C50.6222 38.9249 50.7241 39.3776 51.0594 39.5924C51.1775 39.6681 51.3087 39.7042 51.4384 39.7042C51.6771 39.7042 51.9105 39.5821 52.0464 39.3595C53.5583 36.8827 56.1606 35.404 59.0077 35.404C61.8437 35.404 64.4406 36.8738 65.9545 39.3356C66.1653 39.6786 66.6077 39.7814 66.9422 39.5653C67.2769 39.3493 67.3773 38.896 67.1664 38.5532Z" fill="#F7BD4C"></path> <path d="M63.3862 40.8739C62.4314 39.3211 60.7931 38.394 59.004 38.394C57.2077 38.394 55.5661 39.3267 54.6125 40.8888C54.4028 41.2324 54.5045 41.6853 54.8399 41.9001C54.958 41.9758 55.0893 42.0119 55.219 42.0119C55.4576 42.0119 55.691 41.8897 55.8269 41.6672C56.517 40.5367 57.7047 39.8618 59.004 39.8618C60.2982 39.8618 61.4834 40.5327 62.1744 41.6563C62.3852 41.9993 62.8274 42.1021 63.1622 41.886C63.4968 41.6699 63.5972 41.2168 63.3862 40.8739Z" fill="#F7BD4C"></path> <path d="M70.8631 35.8311C68.2723 32.1799 63.8419 30 59.0119 30C54.1625 30 49.7228 32.1932 47.1355 35.8667C46.904 36.1953 46.9764 36.6541 47.2971 36.8912C47.4239 36.985 47.5705 37.0301 47.7156 37.0301C47.9379 37.0301 48.157 36.9243 48.297 36.7256C50.6158 33.4333 54.6213 31.4678 59.0119 31.4678C63.3851 31.4678 67.3824 33.4216 69.7044 36.6941C69.9369 37.022 70.3849 37.0945 70.7048 36.8562C71.0249 36.6179 71.0956 36.1588 70.8631 35.8311Z" fill="#F7BD4C"></path> <defs> <filter id="filter0_f" x="0" y="0" width="118" height="118" filterUnits="userSpaceOnUse" color-interpolation-filters="sRGB"> <feFlood flood-opacity="0" result="BackgroundImageFix"></feFlood> <feBlend mode="normal" in="SourceGraphic" in2="BackgroundImageFix" result="shape"></feBlend> <feGaussianBlur stdDeviation="15" result="effect1_foregroundBlur"></feGaussianBlur> </filter> </defs> </svg> 