<?xml version="1.0" encoding="UTF-8"?> <svg xmlns="http://www.w3.org/2000/svg" width="118" height="118" viewBox="0 0 118 118" fill="none"> <g opacity="0.6" filter="url(#filter0_f)"> <circle cx="59" cy="59" r="29" fill="#F7BD4C"></circle> </g> <path d="M57.9999 52.1384C56.5025 52.1384 55.2844 53.3371 55.2844 54.8106V72.8657C55.2844 74.3392 56.5025 75.5379 57.9999 75.5379C59.4972 75.5379 60.7153 74.3391 60.7153 72.8657V54.8106C60.7153 53.3371 59.4972 52.1384 57.9999 52.1384ZM59.2342 72.8657C59.2342 73.5355 58.6805 74.0804 57.9999 74.0804C57.3192 74.0804 56.7655 73.5354 56.7655 72.8657V54.8106C56.7655 54.1408 57.3192 53.5959 57.9999 53.5959C58.6805 53.5959 59.2342 54.1408 59.2342 54.8106V72.8657Z" fill="#F7BD4C"></path> <path d="M53.8025 72.7937L53.3088 54.7385C53.2688 53.2804 52.0775 52.1382 50.5968 52.1382C50.5716 52.1382 50.5462 52.1384 50.5213 52.1392C49.0245 52.1789 47.8396 53.4095 47.8799 54.8822L48.3736 72.9374C48.4135 74.3954 49.6054 75.5376 51.087 75.5376C51.1117 75.5376 51.1364 75.5374 51.1611 75.5367C52.6578 75.497 53.8427 74.2664 53.8025 72.7937ZM51.1211 74.0798L51.0869 74.0802C50.4138 74.0802 49.8722 73.5611 49.854 72.8982L49.3603 54.8431C49.3421 54.1737 49.8808 53.6142 50.5616 53.5962L50.5966 53.5957C51.269 53.5957 51.81 54.1149 51.8281 54.7777L52.3218 72.8328C52.34 73.5023 51.8014 74.0617 51.1211 74.0798Z" fill="#F7BD4C"></path> <path d="M65.4785 52.1395C65.4537 52.1389 65.4292 52.1387 65.4047 52.1387C63.923 52.1387 62.7311 53.2808 62.6912 54.7389L62.1975 72.794C62.1573 74.2668 63.3422 75.4973 64.8392 75.537C64.864 75.5376 64.8885 75.5379 64.913 75.5379C66.3946 75.5379 67.5865 74.3958 67.6264 72.9377L68.1201 54.8826C68.1604 53.4098 66.9755 52.1792 65.4785 52.1395ZM66.1459 72.8984C66.1278 73.5611 65.5861 74.0804 64.913 74.0804L64.8788 74.0799C64.1985 74.0619 63.6598 73.5024 63.6781 72.833L64.1718 54.7779C64.19 54.1151 64.7316 53.5959 65.4047 53.5959L65.4389 53.5963C66.1192 53.6144 66.6578 54.1738 66.6396 54.8433L66.1459 72.8984Z" fill="#F7BD4C"></path> <path d="M70.5537 72.5732C70.1437 72.5494 69.7963 72.8594 69.774 73.2614L69.4273 79.5425H46.5724L45.2057 54.7799C45.1836 54.3782 44.8358 54.0691 44.426 54.0917C44.0176 54.1136 43.7045 54.457 43.7267 54.859L45.1315 80.3108C45.1528 80.6973 45.4776 81 45.871 81H70.1286C70.5221 81 70.8468 80.6973 70.8682 80.3108L71.2528 73.3404C71.2752 72.9384 70.962 72.595 70.5537 72.5732Z" fill="#F7BD4C"></path> <path d="M71.6242 40.9004H64.1871V39.362C64.1871 38.0595 63.1105 37 61.787 37H54.213C52.8895 37 51.8127 38.0595 51.8127 39.362V40.9004H44.3755C41.9628 40.9004 40 42.832 40 45.2062V47.4052C40 47.8077 40.3316 48.134 40.7406 48.134H43.3556L43.5658 51.944C43.5872 52.3325 43.914 52.6333 44.3046 52.6332C44.3181 52.6332 44.3318 52.6329 44.3454 52.6322C44.7538 52.6103 45.0669 52.2669 45.0447 51.8649L44.8389 48.134H63.5379C63.9469 48.134 64.2785 47.8077 64.2785 47.4052C64.2785 47.0028 63.9469 46.6765 63.5379 46.6765H41.4813V45.2061C41.4813 43.6356 42.7796 42.3578 44.3757 42.3578H52.5534H63.4467H71.6244C73.2204 42.3578 74.5188 43.6355 74.5188 45.2061V46.6763H66.5005C66.0916 46.6763 65.76 47.0026 65.76 47.405C65.76 47.8075 66.0916 48.1338 66.5005 48.1338H71.161L69.9352 70.3462C69.913 70.7481 70.2261 71.0915 70.6345 71.1134C70.6482 71.1142 70.6617 71.1145 70.6754 71.1145C71.066 71.1145 71.3927 70.8136 71.4142 70.4252L72.6444 48.1337H75.2594C75.6684 48.1337 76 47.8074 76 47.4049V45.2061C75.9997 42.832 74.037 40.9004 71.6242 40.9004ZM62.706 40.9004H53.2939V39.362C53.2939 38.8633 53.7062 38.4576 54.213 38.4576H61.787C62.2937 38.4576 62.706 38.8633 62.706 39.362V40.9004Z" fill="#C8C5C8"></path> <defs> <filter id="filter0_f" x="0" y="0" width="118" height="118" filterUnits="userSpaceOnUse" color-interpolation-filters="sRGB"> <feFlood flood-opacity="0" result="BackgroundImageFix"></feFlood> <feBlend mode="normal" in="SourceGraphic" in2="BackgroundImageFix" result="shape"></feBlend> <feGaussianBlur stdDeviation="15" result="effect1_foregroundBlur"></feGaussianBlur> </filter> </defs> </svg> 