<?xml version="1.0" encoding="UTF-8"?> <svg xmlns="http://www.w3.org/2000/svg" width="118" height="118" viewBox="0 0 118 118" fill="none"> <g opacity="0.6" filter="url(#filter0_f)"> <circle cx="59" cy="59" r="29" fill="#F7BD4C"></circle> </g> <path d="M75.8007 36.4381C75.7465 36.4381 75.6925 36.4436 75.6394 36.4543C70.3653 37.522 64.8778 36.5606 60.2961 33.7662L59.2286 33.1181C58.9689 32.9606 58.6417 32.9606 58.382 33.1181L57.3145 33.7662C52.7324 36.5595 47.2449 37.5197 41.9712 36.4511C41.5333 36.3627 41.1057 36.6421 41.0164 37.075C41.0054 37.1285 40.9999 37.183 41 37.2376V61.8312C40.9986 64.9918 41.849 68.0958 43.4636 70.8237C45.3124 73.966 48.1244 76.4454 51.493 77.9034L58.4816 80.9332C58.6879 81.0223 58.9227 81.0223 59.129 80.9332L66.12 77.9034C66.5134 77.733 66.9002 77.5482 67.2774 77.3505C67.6723 77.1433 67.8225 76.6589 67.6128 76.2685C67.4032 75.878 66.9132 75.7296 66.5182 75.9369C66.1762 76.1161 65.8268 76.283 65.4701 76.4377L58.8053 79.3267L52.1429 76.4401C49.0866 75.1163 46.5357 72.8658 44.8589 70.0141C43.3896 67.5306 42.6162 64.7049 42.6187 61.828V38.1936C48.0027 39.0436 53.5166 37.9555 58.1578 35.127L58.8053 34.7357L59.4528 35.1262C64.0934 37.9561 69.6078 39.0446 74.9919 38.1936V61.8279C74.9919 62.2697 75.3543 62.6279 75.8013 62.6279C76.2482 62.6279 76.6106 62.2697 76.6106 61.8279V37.2375C76.6103 36.7957 76.2477 36.4377 75.8007 36.4381Z" fill="#C8C5C8"></path> <path d="M58.7465 39.0061C58.5377 38.6154 58.0481 38.466 57.6529 38.6724C57.632 38.6833 57.6115 38.6952 57.5915 38.7079C53.8583 40.8697 49.4539 41.6071 45.2087 40.7808C44.7708 40.6924 44.3433 40.9718 44.2539 41.4047C44.243 41.4577 44.2375 41.5116 44.2375 41.5657V60.6789C44.2391 63.1835 44.9425 65.6387 46.2698 67.7722C47.8198 70.2701 50.1291 72.2197 52.8675 73.3421C53.2798 73.5129 53.7541 73.3209 53.9269 72.9133C54.0997 72.5057 53.9054 72.0368 53.4931 71.866C51.0679 70.8729 49.0225 69.147 47.6497 66.9353C46.4789 65.0536 45.8581 62.888 45.8562 60.6789V42.5129C50.1977 43.1369 54.6247 42.2813 58.4089 40.0872C58.8041 39.8809 58.9552 39.3969 58.7465 39.0061Z" fill="#F7BD4C"></path> <path d="M78.7215 73.2369C78.4182 72.9764 77.9674 72.9752 77.6628 73.2343L73.7926 77.0602C73.5228 76.9802 73.2353 76.9802 72.9654 77.0602L65.8579 70.0341C65.5364 69.7272 65.024 69.736 64.7135 70.0538C64.4106 70.3638 64.4106 70.8554 64.7135 71.1654L71.8202 78.1914C71.5806 79.0313 72.0752 79.9042 72.9248 80.1411C73.0707 80.1818 73.2217 80.2017 73.3733 80.2004C74.2674 80.2004 74.992 79.484 74.992 78.6003C74.9901 78.462 74.9697 78.3244 74.9313 78.1914L78.8015 74.3656C79.0947 74.0321 79.0589 73.5267 78.7215 73.2369Z" fill="#F7BD4C"></path> <path d="M71.5175 50.8329L68.2802 47.6327C67.9641 47.3204 67.4518 47.3204 67.1358 47.6327L57.1866 57.4677L54.5215 54.8331C54.2055 54.5208 53.6932 54.5208 53.3771 54.8331L50.1398 58.0333C49.8238 58.3458 49.8238 58.8522 50.1398 59.1646L56.6144 65.565C56.7662 65.715 56.972 65.7994 57.1866 65.7994C57.4013 65.7994 57.6071 65.715 57.7588 65.565L71.5175 51.9642C71.8334 51.6517 71.8334 51.1453 71.5175 50.8329ZM57.1866 63.8681L51.8596 58.599L53.9493 56.53L56.6201 59.1646C56.9362 59.4769 57.4485 59.4769 57.7645 59.1646L67.708 49.3296L69.8041 51.3985L57.1866 63.8681Z" fill="#F7BD4C"></path> <defs> <filter id="filter0_f" x="0" y="0" width="118" height="118" filterUnits="userSpaceOnUse" color-interpolation-filters="sRGB"> <feFlood flood-opacity="0" result="BackgroundImageFix"></feFlood> <feBlend mode="normal" in="SourceGraphic" in2="BackgroundImageFix" result="shape"></feBlend> <feGaussianBlur stdDeviation="15" result="effect1_foregroundBlur"></feGaussianBlur> </filter> </defs> </svg> 