<?xml version="1.0" encoding="utf-8"?>
<!-- Generator: Adobe Illustrator 25.2.3, SVG Export Plug-In . SVG Version: 6.00 Build 0)  -->
<svg version="1.1" id="Capa_1" xmlns="http://www.w3.org/2000/svg" xmlns:xlink="http://www.w3.org/1999/xlink" x="0px" y="0px"
	 viewBox="0 0 96.5 96.5" style="enable-background:new 0 0 96.5 96.5;" xml:space="preserve">
<style type="text/css">
	.st0{fill:#FFFFFF;}
</style>
<g>
	<path class="st0" d="M92.5,65.2c-2.9-3.4-6.3-6.4-9.5-9.5c-2.9-2.8-3.1-4.4-0.7-7.7c2.5-3.5,5.3-7,7.8-10.5
		c2.4-3.3,4.8-6.6,6.1-10.5c0.8-2.5,0.1-3.6-2.5-4.1c-0.4-0.1-0.9-0.1-1.4-0.1H77c-1.9,0-2.9,0.8-3.6,2.5c-0.9,2.3-1.8,4.5-2.9,6.7
		c-2.4,4.9-5.1,9.7-8.9,13.7c-0.8,0.9-1.8,2-3.2,1.6c-1.8-0.6-2.3-3.5-2.2-4.5V25.2c-0.3-2.5-0.9-3.6-3.4-4.1H36.9
		c-2.1,0-3.2,0.8-4.3,2.1c-0.7,0.8-0.9,1.3,0.5,1.5c2.6,0.5,4.1,2.2,4.5,4.8c0.6,4.2,0.6,8.5,0.2,12.7c-0.1,1.2-0.3,2.5-0.8,3.6
		c-0.8,1.8-2,2.2-3.6,1.1c-1.5-1-2.5-2.4-3.5-3.9C26,37.6,23,31.8,20.5,25.7c-0.7-1.8-2-2.8-3.8-2.9c-4.6-0.1-9.2-0.1-13.8,0
		c-2.8,0.1-3.6,1.4-2.5,3.9c5,11.1,10.6,21.9,17.8,31.8c3.7,5.1,8,9.5,13.5,12.7c6.3,3.6,13,4.7,20.1,4.3c3.3-0.2,4.3-1,4.5-4.3
		c0.1-2.3,0.4-4.5,1.5-6.6c1.1-2,2.8-2.4,4.7-1.1c1,0.6,1.8,1.4,2.5,2.3c1.9,2,3.7,4.2,5.6,6.1c2.4,2.5,5.3,3.9,9,3.6h14.1
		c2.3-0.1,3.4-2.9,2.1-5.5C95,68.3,93.8,66.7,92.5,65.2z"/>
</g>
</svg>
