<?xml version="1.0" encoding="UTF-8"?> <svg xmlns="http://www.w3.org/2000/svg" width="632" height="113" viewBox="0 0 632 113" fill="none"> <path d="M160.1 76.04C162.58 76.84 164.46 78.08 165.74 79.76C167.06 81.44 167.72 83.52 167.72 86C167.72 89.72 166.26 92.66 163.34 94.82C160.46 96.94 156.36 98 151.04 98H129.5V56H149.9C154.94 56 158.84 56.96 161.6 58.88C164.4 60.76 165.8 63.44 165.8 66.92C165.8 68.96 165.3 70.76 164.3 72.32C163.34 73.88 161.94 75.12 160.1 76.04ZM141.2 72.8H148.76C152.12 72.8 153.8 71.42 153.8 68.66C153.8 65.9 152.12 64.52 148.76 64.52H141.2V72.8ZM150.56 89.48C154 89.48 155.72 88.02 155.72 85.1C155.72 82.26 154 80.84 150.56 80.84H141.2V89.48H150.56ZM194.788 98.84C190.348 98.84 186.348 97.9 182.788 96.02C179.268 94.14 176.488 91.54 174.448 88.22C172.448 84.9 171.448 81.16 171.448 77C171.448 72.84 172.448 69.1 174.448 65.78C176.488 62.46 179.268 59.86 182.788 57.98C186.348 56.1 190.348 55.16 194.788 55.16C199.228 55.16 203.208 56.1 206.728 57.98C210.288 59.86 213.068 62.46 215.068 65.78C217.108 69.1 218.128 72.84 218.128 77C218.128 81.16 217.108 84.9 215.068 88.22C213.068 91.54 210.288 94.14 206.728 96.02C203.208 97.9 199.228 98.84 194.788 98.84ZM194.788 89C196.908 89 198.828 88.5 200.548 87.5C202.268 86.5 203.628 85.1 204.628 83.3C205.628 81.46 206.128 79.36 206.128 77C206.128 74.64 205.628 72.56 204.628 70.76C203.628 68.92 202.268 67.5 200.548 66.5C198.828 65.5 196.908 65 194.788 65C192.668 65 190.748 65.5 189.028 66.5C187.308 67.5 185.948 68.92 184.948 70.76C183.948 72.56 183.448 74.64 183.448 77C183.448 79.36 183.948 81.46 184.948 83.3C185.948 85.1 187.308 86.5 189.028 87.5C190.748 88.5 192.668 89 194.788 89ZM241.941 56H253.641V80.66L270.981 56H282.141V98H270.441V73.4L253.161 98H241.941V56ZM329.02 98L328.96 75.74L318.16 93.86H312.88L302.08 76.22V98H291.16V56H300.94L315.7 80.24L330.1 56H339.88L340 98H329.02ZM384.094 56V98H372.394V87.44H365.914L359.014 98H346.534L355.054 85.7C352.254 84.46 350.114 82.68 348.634 80.36C347.154 78 346.414 75.2 346.414 71.96C346.414 68.68 347.174 65.84 348.694 63.44C350.214 61.04 352.394 59.2 355.234 57.92C358.074 56.64 361.394 56 365.194 56H384.094ZM365.434 65.36C360.754 65.36 358.414 67.5 358.414 71.78C358.414 73.9 358.994 75.52 360.154 76.64C361.354 77.72 363.074 78.26 365.314 78.26H372.394V65.36H365.434ZM444.414 65.42H431.574V98H419.874V65.42H406.974V56H444.414V65.42ZM483.611 88.82V98H449.891V56H482.831V65.18H461.651V72.26H480.311V81.14H461.651V88.82H483.611ZM529.799 56V98H518.039V65.42H502.079V98H490.379V56H529.799ZM577.84 56V98H566.14V65.42H554.08L553.84 72.26C553.64 78.26 553.14 83.14 552.34 86.9C551.58 90.66 550.26 93.58 548.38 95.66C546.5 97.7 543.84 98.72 540.4 98.72C538.8 98.72 537 98.48 535 98L535.66 88.28C536.18 88.4 536.72 88.46 537.28 88.46C538.84 88.46 540.04 87.84 540.88 86.6C541.72 85.36 542.32 83.64 542.68 81.44C543.04 79.2 543.28 76.3 543.4 72.74L544 56H577.84ZM615.804 89.84H598.044L594.744 98H582.624L601.164 56H612.864L631.464 98H619.104L615.804 89.84ZM612.324 81.08L606.924 67.64L601.524 81.08H612.324Z" fill="#2E3842"></path> <path d="M136.119 30.6533H131.616L130.74 34H127.247L132.357 17.6484H135.378L140.521 34H136.995L136.119 30.6533ZM132.334 27.9019H135.389L133.862 22.0732L132.334 27.9019ZM142.06 34V17.6484H147.114C148.821 17.6484 150.116 18.0303 151 18.7939C151.89 19.5501 152.336 20.6619 152.336 22.1294C152.336 22.9604 152.153 23.6755 151.786 24.2744C151.419 24.8734 150.917 25.3114 150.281 25.5884C151.014 25.798 151.58 26.221 151.977 26.8574C152.373 27.4863 152.572 28.265 152.572 29.1934C152.572 30.7806 152.134 31.9785 151.258 32.7871C150.389 33.5957 149.128 34 147.473 34H142.06ZM145.362 26.8911V31.2598H147.473C148.065 31.2598 148.514 31.0763 148.821 30.7095C149.128 30.3426 149.281 29.8223 149.281 29.1484C149.281 27.681 148.75 26.9285 147.687 26.8911H145.362ZM145.362 24.4878H147.08C148.375 24.4878 149.023 23.8177 149.023 22.4775C149.023 21.7363 148.873 21.2048 148.574 20.8828C148.274 20.5609 147.788 20.3999 147.114 20.3999H145.362V24.4878ZM165.206 20.3999H161.163V34H157.85V20.3999H153.875V17.6484H165.206V20.3999ZM178.099 27.2954C178.099 29.4891 177.578 31.1924 176.538 32.4053C175.504 33.6182 174.067 34.2246 172.225 34.2246C170.391 34.2246 168.95 33.6257 167.901 32.4277C166.853 31.2223 166.322 29.5378 166.307 27.374V24.5776C166.307 22.3315 166.827 20.5796 167.868 19.3218C168.908 18.0565 170.353 17.4238 172.203 17.4238C174.022 17.4238 175.456 18.0452 176.504 19.2881C177.552 20.5234 178.084 22.2604 178.099 24.499V27.2954ZM174.786 24.5552C174.786 23.0802 174.576 21.9834 174.157 21.2646C173.737 20.5459 173.086 20.1865 172.203 20.1865C171.327 20.1865 170.679 20.5347 170.26 21.231C169.84 21.9198 169.623 22.9717 169.608 24.3867V27.2954C169.608 28.7254 169.822 29.7811 170.249 30.4624C170.675 31.1362 171.334 31.4731 172.225 31.4731C173.086 31.4731 173.726 31.1437 174.146 30.4849C174.565 29.8185 174.778 28.7891 174.786 27.3965V24.5552ZM191.935 34H188.644V27.0034H183.77V34H180.468V17.6484H183.77V24.2632H188.644V17.6484H191.935V34ZM206.107 27.2954C206.107 29.4891 205.587 31.1924 204.546 32.4053C203.513 33.6182 202.076 34.2246 200.234 34.2246C198.4 34.2246 196.958 33.6257 195.91 32.4277C194.862 31.2223 194.33 29.5378 194.315 27.374V24.5776C194.315 22.3315 194.836 20.5796 195.876 19.3218C196.917 18.0565 198.362 17.4238 200.211 17.4238C202.031 17.4238 203.465 18.0452 204.513 19.2881C205.561 20.5234 206.092 22.2604 206.107 24.499V27.2954ZM202.794 24.5552C202.794 23.0802 202.585 21.9834 202.166 21.2646C201.746 20.5459 201.095 20.1865 200.211 20.1865C199.335 20.1865 198.688 20.5347 198.269 21.231C197.849 21.9198 197.632 22.9717 197.617 24.3867V27.2954C197.617 28.7254 197.831 29.7811 198.257 30.4624C198.684 31.1362 199.343 31.4731 200.234 31.4731C201.095 31.4731 201.735 31.1437 202.154 30.4849C202.574 29.8185 202.787 28.7891 202.794 27.3965V24.5552ZM212.79 17.6484L215.878 29.4741L218.955 17.6484H223.268V34H219.955V29.5752L220.258 22.7583L216.99 34H214.744L211.476 22.7583L211.779 29.5752V34H208.477V17.6484H212.79ZM237.396 34H234.105V27.0034H229.231V34H225.929V17.6484H229.231V24.2632H234.105V17.6484H237.396V34ZM251.568 27.2954C251.568 29.4891 251.048 31.1924 250.007 32.4053C248.974 33.6182 247.537 34.2246 245.695 34.2246C243.861 34.2246 242.419 33.6257 241.371 32.4277C240.323 31.2223 239.791 29.5378 239.776 27.374V24.5776C239.776 22.3315 240.297 20.5796 241.337 19.3218C242.378 18.0565 243.823 17.4238 245.672 17.4238C247.492 17.4238 248.925 18.0452 249.974 19.2881C251.022 20.5234 251.553 22.2604 251.568 24.499V27.2954ZM248.255 24.5552C248.255 23.0802 248.046 21.9834 247.626 21.2646C247.207 20.5459 246.556 20.1865 245.672 20.1865C244.796 20.1865 244.149 20.5347 243.729 21.231C243.31 21.9198 243.093 22.9717 243.078 24.3867V27.2954C243.078 28.7254 243.292 29.7811 243.718 30.4624C244.145 31.1362 244.804 31.4731 245.695 31.4731C246.556 31.4731 247.196 31.1437 247.615 30.4849C248.035 29.8185 248.248 28.7891 248.255 27.3965V24.5552ZM262.383 26.9248H257.24V31.2598H263.327V34H253.938V17.6484H263.304V20.3999H257.24V24.2632H262.383V26.9248ZM282.048 27.2954C282.048 29.4891 281.528 31.1924 280.487 32.4053C279.454 33.6182 278.016 34.2246 276.174 34.2246C274.34 34.2246 272.899 33.6257 271.851 32.4277C270.802 31.2223 270.271 29.5378 270.256 27.374V24.5776C270.256 22.3315 270.776 20.5796 271.817 19.3218C272.858 18.0565 274.303 17.4238 276.152 17.4238C277.971 17.4238 279.405 18.0452 280.453 19.2881C281.501 20.5234 282.033 22.2604 282.048 24.499V27.2954ZM278.735 24.5552C278.735 23.0802 278.525 21.9834 278.106 21.2646C277.687 20.5459 277.035 20.1865 276.152 20.1865C275.276 20.1865 274.628 20.5347 274.209 21.231C273.79 21.9198 273.573 22.9717 273.558 24.3867V27.2954C273.558 28.7254 273.771 29.7811 274.198 30.4624C274.625 31.1362 275.283 31.4731 276.174 31.4731C277.035 31.4731 277.675 31.1437 278.095 30.4849C278.514 29.8185 278.727 28.7891 278.735 27.3965V24.5552ZM294.334 20.3999H290.291V34H286.978V20.3999H283.002V17.6484H294.334V20.3999ZM307.227 27.2954C307.227 29.4891 306.706 31.1924 305.666 32.4053C304.632 33.6182 303.195 34.2246 301.353 34.2246C299.519 34.2246 298.077 33.6257 297.029 32.4277C295.981 31.2223 295.45 29.5378 295.435 27.374V24.5776C295.435 22.3315 295.955 20.5796 296.996 19.3218C298.036 18.0565 299.481 17.4238 301.331 17.4238C303.15 17.4238 304.584 18.0452 305.632 19.2881C306.68 20.5234 307.212 22.2604 307.227 24.499V27.2954ZM303.914 24.5552C303.914 23.0802 303.704 21.9834 303.285 21.2646C302.865 20.5459 302.214 20.1865 301.331 20.1865C300.455 20.1865 299.807 20.5347 299.388 21.231C298.968 21.9198 298.751 22.9717 298.736 24.3867V27.2954C298.736 28.7254 298.95 29.7811 299.376 30.4624C299.803 31.1362 300.462 31.4731 301.353 31.4731C302.214 31.4731 302.854 31.1437 303.273 30.4849C303.693 29.8185 303.906 28.7891 303.914 27.3965V24.5552ZM321.074 34H317.772V20.3999H312.92V34H309.619V17.6484H321.074V34ZM335.213 17.6484V34H331.9V20.3999H328.868L328.643 26.1948C328.553 28.104 328.336 29.6201 327.992 30.7432C327.655 31.8587 327.157 32.6785 326.498 33.2026C325.847 33.7267 324.967 33.9925 323.859 34H323.05V31.2598L323.432 31.2261C324.121 31.1437 324.615 30.6945 324.915 29.8784C325.222 29.0549 325.412 27.6024 325.487 25.521L325.701 17.6484H335.213ZM346.32 26.9248H341.176V31.2598H347.263V34H337.875V17.6484H347.241V20.3999H341.176V24.2632H346.32V26.9248ZM360.639 34H357.348V27.0034H352.474V34H349.172V17.6484H352.474V24.2632H357.348V17.6484H360.639V34ZM371.308 17.6484H374.609V34H371.308V23.1738L366.49 34H363.177V17.6484H366.49V28.4858L371.308 17.6484ZM385.694 26.9248H380.55V31.2598H386.637V34H377.249V17.6484H386.615V20.3999H380.55V24.2632H385.694V26.9248ZM401.854 17.6484H405.156V34H401.854V23.1738L397.037 34H393.724V17.6484H397.037V28.4858L401.854 17.6484ZM415.747 28.5532C415.799 29.5265 416.001 30.264 416.353 30.7656C416.712 31.2598 417.296 31.5068 418.105 31.5068C418.966 31.5068 419.584 31.1475 419.958 30.4287C420.34 29.7025 420.557 28.6281 420.609 27.2056H416.623V24.4541H420.598C420.538 23.0091 420.299 21.9347 419.879 21.231C419.46 20.5272 418.854 20.1753 418.06 20.1753C417.289 20.1753 416.72 20.4074 416.353 20.8716C415.994 21.3358 415.788 22.1182 415.735 23.2188H412.422C412.572 21.3919 413.137 19.9694 414.118 18.9512C415.099 17.9329 416.413 17.4238 418.06 17.4238C419.842 17.4238 421.264 18.1388 422.328 19.5688C423.391 20.9989 423.922 22.9455 423.922 25.4087V26.3745C423.922 28.8003 423.402 30.717 422.361 32.1245C421.328 33.5246 419.909 34.2246 418.105 34.2246C416.42 34.2246 415.08 33.7155 414.084 32.6973C413.089 31.6715 412.542 30.2902 412.445 28.5532H415.747ZM437.208 17.6484V34H433.895V20.3999H430.863L430.638 26.1948C430.548 28.104 430.331 29.6201 429.987 30.7432C429.65 31.8587 429.152 32.6785 428.493 33.2026C427.842 33.7267 426.962 33.9925 425.854 34H425.045V31.2598L425.427 31.2261C426.116 31.1437 426.61 30.6945 426.91 29.8784C427.217 29.0549 427.408 27.6024 427.482 25.521L427.696 17.6484H437.208ZM448.315 26.9248H443.171V31.2598H449.258V34H439.87V17.6484H449.236V20.3999H443.171V24.2632H448.315V26.9248ZM455.929 27.3291H454.492V34H451.19V17.6484H454.492V24.1846H455.604L458.445 17.6484H462.465L458.467 25.2627L462.915 34H458.984L455.929 27.3291ZM474.74 20.3999H470.697V34H467.384V20.3999H463.409V17.6484H474.74V20.3999ZM479.94 28.25V34H476.638V17.6484H482.208C483.826 17.6484 485.113 18.1501 486.072 19.1533C487.038 20.1566 487.521 21.4593 487.521 23.0615C487.521 24.6637 487.045 25.929 486.094 26.8574C485.143 27.7858 483.826 28.25 482.141 28.25H479.94ZM479.94 25.4985H482.208C482.837 25.4985 483.324 25.2926 483.668 24.8809C484.013 24.4691 484.185 23.8701 484.185 23.084C484.185 22.2679 484.009 21.6203 483.657 21.1411C483.305 20.6545 482.834 20.4074 482.242 20.3999H479.94V25.4985ZM501.244 27.2954C501.244 29.4891 500.724 31.1924 499.683 32.4053C498.65 33.6182 497.212 34.2246 495.371 34.2246C493.536 34.2246 492.095 33.6257 491.047 32.4277C489.999 31.2223 489.467 29.5378 489.452 27.374V24.5776C489.452 22.3315 489.972 20.5796 491.013 19.3218C492.054 18.0565 493.499 17.4238 495.348 17.4238C497.167 17.4238 498.601 18.0452 499.649 19.2881C500.698 20.5234 501.229 22.2604 501.244 24.499V27.2954ZM497.931 24.5552C497.931 23.0802 497.722 21.9834 497.302 21.2646C496.883 20.5459 496.232 20.1865 495.348 20.1865C494.472 20.1865 493.825 20.5347 493.405 21.231C492.986 21.9198 492.769 22.9717 492.754 24.3867V27.2954C492.754 28.7254 492.967 29.7811 493.394 30.4624C493.821 31.1362 494.48 31.4731 495.371 31.4731C496.232 31.4731 496.872 31.1437 497.291 30.4849C497.71 29.8185 497.924 28.7891 497.931 27.3965V24.5552ZM514.698 28.5532C514.616 30.4175 514.092 31.8288 513.126 32.7871C512.16 33.7454 510.798 34.2246 509.038 34.2246C507.189 34.2246 505.77 33.6182 504.782 32.4053C503.801 31.1849 503.311 29.4479 503.311 27.1943V24.4429C503.311 22.1968 503.82 20.4673 504.838 19.2544C505.856 18.034 507.271 17.4238 509.083 17.4238C510.865 17.4238 512.216 17.9217 513.137 18.9175C514.066 19.9132 514.593 21.3433 514.721 23.2075H511.408C511.378 22.0545 511.198 21.2609 510.869 20.8267C510.547 20.3849 509.951 20.1641 509.083 20.1641C508.2 20.1641 507.574 20.4748 507.208 21.0962C506.841 21.7101 506.646 22.7246 506.624 24.1396V27.228C506.624 28.8527 506.803 29.9683 507.163 30.5747C507.529 31.1812 508.155 31.4844 509.038 31.4844C509.907 31.4844 510.506 31.2747 510.835 30.8555C511.164 30.4287 511.352 29.6613 511.396 28.5532H514.698ZM528.197 34H524.907V27.0034H520.033V34H516.731V17.6484H520.033V24.2632H524.907V17.6484H528.197V34ZM538.731 30.6533H534.228L533.352 34H529.859L534.969 17.6484H537.99L543.134 34H539.607L538.731 30.6533ZM534.947 27.9019H538.001L536.474 22.0732L534.947 27.9019ZM553.836 20.3999H547.974V23.522H549.928C551.583 23.522 552.901 23.9937 553.881 24.937C554.862 25.8729 555.353 27.127 555.353 28.6992C555.353 30.264 554.873 31.533 553.915 32.5063C552.957 33.4722 551.688 33.9701 550.108 34H544.661V17.6484H553.836V20.3999ZM547.974 26.2622V31.2598H549.973C550.617 31.2598 551.122 31.0202 551.489 30.541C551.864 30.0544 552.051 29.4329 552.051 28.6768C552.051 27.9655 551.867 27.389 551.5 26.9473C551.141 26.498 550.639 26.2697 549.996 26.2622H547.974ZM569.087 27.3628H567.526V34H564.225V27.3628H562.607L560.036 34H555.925L560.047 25.0381L556.105 17.6484H560.215L562.877 24.2183H564.225V17.6484H567.526V24.2183H568.829L571.401 17.6484H575.5L571.648 25.0044L575.68 34H571.569L569.087 27.3628ZM585.641 26.9248H580.498V31.2598H586.584V34H577.196V17.6484H586.562V20.3999H580.498V24.2632H585.641V26.9248ZM599.96 34H596.669V27.0034H591.795V34H588.494V17.6484H591.795V24.2632H596.669V17.6484H599.96V34ZM610.629 17.6484H613.931V34H610.629V23.1738L605.811 34H602.498V17.6484H605.811V28.4858L610.629 17.6484ZM625.015 26.9248H619.872V31.2598H625.958V34H616.57V17.6484H625.936V20.3999H619.872V24.2632H625.015V26.9248Z" fill="#2E3842"></path> <path d="M81.8034 53.8647C80.7496 40.144 74.3613 31.5457 68.7256 23.9583C63.5071 16.9339 59 10.868 59 1.91995C59 1.2012 58.5975 0.544262 57.9593 0.214895C57.319 -0.116449 56.5498 -0.0621833 55.9678 0.360801C47.5038 6.41735 40.4417 16.6252 37.9748 26.365C36.2622 33.1459 36.0356 40.7689 36.0038 45.8036C28.1874 44.1341 26.4167 32.4422 26.398 32.3148C26.31 31.7084 25.9395 31.1806 25.4004 30.8924C24.8558 30.608 24.2156 30.5873 23.6634 30.8606C23.2535 31.059 13.6027 35.9626 13.0411 55.5416C13.0018 56.1929 13 56.8463 13 57.4994C13 76.5206 28.4774 91.9971 47.5 91.9971C47.5262 91.9989 47.5543 92.0027 47.5767 91.9971C47.5843 91.9971 47.5916 91.9971 47.601 91.9971C66.5769 91.9427 82 76.487 82 57.4994C82 56.543 81.8034 53.8647 81.8034 53.8647ZM47.5 88.164C41.1585 88.164 36 82.669 36 75.9144C36 75.6842 35.9982 75.452 36.0149 75.1676C36.0916 72.319 36.6327 70.3744 37.226 69.081C38.3379 71.4692 40.3256 73.6647 43.5544 73.6647C44.6139 73.6647 45.4711 72.8074 45.4711 71.7481C45.4711 69.0194 45.5274 65.8713 46.2068 63.03C46.8114 60.5108 48.2563 57.8306 50.087 55.6821C50.9011 58.4708 52.4885 60.7279 54.0383 62.9309C56.2564 66.0826 58.5492 69.3412 58.9517 74.898C58.9759 75.2274 59.0004 75.5588 59.0004 75.9144C59 82.6688 53.8415 88.164 47.5 88.164Z" fill="#F7BD4C"></path> <path d="M76 15V15C84.8366 15 92 22.1634 92 31V84C92 95.0457 83.0457 104 72 104H23C11.9543 104 3 95.0457 3 84V35C3 23.9543 11.9543 15 23 15H31" stroke="#F7BD4C" stroke-width="5" stroke-linecap="round" stroke-linejoin="round"></path> </svg> 