<svg xmlns="http://www.w3.org/2000/svg" viewBox="0 0 92.35 74.46"><defs><style>.cls-1{fill:#e6b447;}</style></defs><g id="Layer_2" data-name="Layer 2"><g id="Capa_1" data-name="Capa 1"><path class="cls-1" d="M0,64.61a9.86,9.86,0,0,0,9.85,9.85h46.7a9.86,9.86,0,0,0,9.85-9.85V35.69L90.33,11.75A6.88,6.88,0,1,0,80.59,2L66.27,16.34a9.87,9.87,0,0,0-9.73-8.28H9.85A9.86,9.86,0,0,0,0,17.91v46.7ZM13.77,21.83H52.63V30l-9.78,9.78L34.12,31a6.89,6.89,0,0,0-9.74,9.74L38,54.36a6.88,6.88,0,0,0,9.74,0l4.91-4.91V60.69H13.77V21.83Z"/></g></g></svg>