<?xml version="1.0" standalone="no"?>
<!DOCTYPE svg PUBLIC "-//W3C//DTD SVG 20010904//EN"
 "http://www.w3.org/TR/2001/REC-SVG-20010904/DTD/svg10.dtd">
<svg version="1.0" xmlns="http://www.w3.org/2000/svg"
 width="254.000000pt" height="254.000000pt" viewBox="0 0 254.000000 254.000000"
 preserveAspectRatio="xMidYMid meet">
<metadata>
Created by potrace 1.14, written by Peter Selinger 2001-2017
</metadata>
<g transform="translate(0.000000,254.000000) scale(0.100000,-0.100000)"
fill="#000000" stroke="none">
<path d="M1455 2471 c-21 -9 -112 -86 -153 -131 -129 -137 -248 -363 -276
-520 -3 -19 -8 -46 -11 -60 -6 -28 -16 -164 -19 -255 -1 -33 -4 -62 -6 -64
-11 -10 -67 19 -99 50 -40 40 -101 163 -108 216 -13 109 -108 77 -203 -68 -72
-111 -112 -280 -111 -464 0 -129 17 -218 57 -310 10 -22 18 -42 19 -45 5 -25
78 -136 100 -152 5 -4 7 -8 3 -8 -10 0 64 -70 74 -70 5 0 7 -3 4 -8 -13 -21
210 -153 299 -177 32 -9 34 -9 80 -20 55 -14 248 -15 264 -2 12 10 13 9 6 -2
-5 -10 -4 -12 4 -7 6 4 24 9 39 12 52 9 162 47 162 56 0 5 4 7 8 4 13 -8 129
67 194 124 107 94 180 206 230 352 29 86 32 103 32 228 1 134 -5 187 -26 265
-6 22 -11 45 -9 52 1 6 -3 14 -9 18 -5 3 -10 13 -10 20 0 8 -11 39 -25 70 -13
30 -25 59 -26 63 -4 16 -102 168 -113 174 -6 4 -8 8 -4 8 4 0 -22 39 -58 88
-36 48 -73 99 -82 115 -9 15 -20 27 -24 27 -4 0 -8 4 -8 10 0 8 -38 70 -58 95
-4 6 -10 15 -11 20 -2 6 -5 15 -7 20 -34 104 -43 140 -47 193 -7 85 -23 103
-72 83z m-110 -1336 c14 -30 30 -55 35 -55 6 0 10 -4 10 -9 0 -5 20 -39 44
-75 75 -112 104 -235 78 -331 -6 -22 -13 -44 -14 -50 -3 -13 -24 -38 -65 -81
-37 -38 -79 -59 -143 -72 -56 -11 -130 10 -186 53 -43 33 -94 110 -94 141 0
13 -3 25 -8 28 -9 5 -7 122 2 149 3 9 8 24 11 34 5 13 12 9 39 -20 48 -53 119
-74 144 -44 6 7 13 48 16 92 3 44 9 96 12 115 4 19 7 43 8 53 0 9 4 17 7 17 4
0 11 10 15 22 9 28 47 88 56 88 3 0 18 -25 33 -55z"/>
<path d="M627 2238 c-6 -4 -14 -5 -19 -2 -27 17 -261 -99 -241 -120 3 -3 0 -6
-8 -6 -42 0 -149 -178 -167 -278 -9 -50 -10 -1310 -1 -1342 3 -8 8 -21 12 -27
5 -7 6 -13 3 -13 -10 0 33 -91 63 -133 42 -59 87 -107 100 -107 6 0 11 -4 11
-9 0 -23 151 -92 232 -107 18 -3 313 -6 654 -6 609 0 623 1 695 22 41 12 99
37 130 56 115 69 210 206 234 337 11 63 14 1369 2 1412 -11 41 -41 111 -60
140 -57 84 -189 171 -274 180 -21 2 -38 4 -38 5 0 1 -15 3 -32 5 -26 3 -37 -2
-53 -22 -11 -14 -20 -31 -20 -38 0 -26 36 -53 80 -58 151 -18 259 -116 285
-257 4 -19 7 -316 7 -660 1 -650 -2 -702 -42 -780 -48 -94 -134 -169 -230
-202 -64 -21 -76 -21 -670 -22 -333 -1 -627 2 -654 7 -108 19 -228 104 -278
199 -53 101 -53 106 -51 753 1 330 4 614 7 630 3 17 7 39 8 50 2 11 5 22 8 25
3 3 12 21 21 40 30 64 104 135 176 170 38 17 75 35 83 39 8 4 80 8 159 9 160
1 185 10 177 61 -2 14 -5 29 -5 33 -2 15 -53 22 -169 23 -68 0 -129 -3 -135
-7z"/>
</g>
</svg>
